# xmcd
#
# Track frame offsets: 
#        150
#        16229
#        32340
#        67398
#        99644
#        123066
#        147405
#        176646
#        202400
#        232243
#        261001
#
# Disc length: 3985 seconds
#
# Revision: 0
# Processed by: cddbd v1.5.2PL0 Copyright (c) Steve Scherf et al.
# Submitted via: ExactAudioCopy v1.0b3
#
DISCID=a30f8f0b
DTITLE=Various Artist - The Best In Dance Vol. 2 - CD 2
DYEAR=1900
DGENRE=
TTITLE0=Scooter - Hello! (Good To Be Back) (Radio Edit)
TTITLE1=Klubbingman Feat. Trixi Delgado - Love Message (Original Radio
TTITLE1=Cut)
TTITLE2=Floorfilla - Komputermelody (Dr. DJ Cerla Floorfiller Mix)
TTITLE3=Mohito Feat. Howard Jones - Slip Away (Dba Trance Mix)
TTITLE4=Soe - Eyes Without Lies (Club Dance Mix)
TTITLE5=Dottor Dag - La Batteria Della Mente
TTITLE6=Benassi Bros. Feat. Dhany - Rocket In The Sky (Club Mix)
TTITLE7=Tocadisco - You're No Good For Me (Tocadisco's Recover Mix)
TTITLE8=Global Deejays - Stars On 45 (Studio 45 Mix)
TTITLE9=Matt Siaz - Insomnia (The Electric Tribute)
TTITLE10=Skyline Feat. Elisabeth - Travelling (Airwave Rmx)
EXTD=
EXTT0=
EXTT1=
EXTT2=
EXTT3=
EXTT4=
EXTT5=
EXTT6=
EXTT7=
EXTT8=
EXTT9=
EXTT10=
PLAYORDER=
